<svg width="1422" height="1085" viewBox="0 0 1422 1085" fill="none" xmlns="http://www.w3.org/2000/svg">
<rect width="1440" height="1080" fill="black"/>
<path d="M120 115L121.35 118.65L125 120L121.35 121.35L120 125L118.65 121.35L115 120L118.65 118.65L120 115Z" fill="#6C6B6B" fill-opacity="0.25"/>
<path d="M240 115L241.35 118.65L245 120L241.35 121.35L240 125L238.65 121.35L235 120L238.65 118.65L240 115Z" fill="#6C6B6B" fill-opacity="0.25"/>
<path d="M360 115L361.35 118.65L365 120L361.35 121.35L360 125L358.65 121.35L355 120L358.65 118.65L360 115Z" fill="#6C6B6B" fill-opacity="0.25"/>
<path d="M480 115L481.35 118.65L485 120L481.35 121.35L480 125L478.65 121.35L475 120L478.65 118.65L480 115Z" fill="#6C6B6B" fill-opacity="0.25"/>
<path d="M600 115L601.35 118.65L605 120L601.35 121.35L600 125L598.65 121.35L595 120L598.65 118.65L600 115Z" fill="#6C6B6B" fill-opacity="0.25"/>
<path d="M720 115L721.35 118.65L725 120L721.35 121.35L720 125L718.65 121.35L715 120L718.65 118.65L720 115Z" fill="#6C6B6B" fill-opacity="0.25"/>
<path d="M840 115L841.35 118.65L845 120L841.35 121.35L840 125L838.65 121.35L835 120L838.65 118.65L840 115Z" fill="#6C6B6B" fill-opacity="0.25"/>
<path d="M960 115L961.35 118.65L965 120L961.35 121.35L960 125L958.65 121.35L955 120L958.65 118.65L960 115Z" fill="#6C6B6B" fill-opacity="0.25"/>
<path d="M1080 115L1081.35 118.65L1085 120L1081.35 121.35L1080 125L1078.65 121.35L1075 120L1078.65 118.65L1080 115Z" fill="#6C6B6B" fill-opacity="0.25"/>
<path d="M1200 115L1201.35 118.65L1205 120L1201.35 121.35L1200 125L1198.65 121.35L1195 120L1198.65 118.65L1200 115Z" fill="#6C6B6B" fill-opacity="0.25"/>
<path d="M1320 115L1321.35 118.65L1325 120L1321.35 121.35L1320 125L1318.65 121.35L1315 120L1318.65 118.65L1320 115Z" fill="#6C6B6B" fill-opacity="0.25"/>
<path d="M120 235L121.35 238.65L125 240L121.35 241.35L120 245L118.65 241.35L115 240L118.65 238.65L120 235Z" fill="#6C6B6B" fill-opacity="0.25"/>
<path d="M240 235L241.35 238.65L245 240L241.35 241.35L240 245L238.65 241.35L235 240L238.65 238.65L240 235Z" fill="#6C6B6B" fill-opacity="0.25"/>
<path d="M360 235L361.35 238.65L365 240L361.35 241.35L360 245L358.65 241.35L355 240L358.65 238.65L360 235Z" fill="#6C6B6B" fill-opacity="0.25"/>
<path d="M480 235L481.35 238.65L485 240L481.35 241.35L480 245L478.65 241.35L475 240L478.65 238.65L480 235Z" fill="#6C6B6B" fill-opacity="0.25"/>
<path d="M600 235L601.35 238.65L605 240L601.35 241.35L600 245L598.65 241.35L595 240L598.65 238.65L600 235Z" fill="#6C6B6B" fill-opacity="0.25"/>
<path d="M720 235L721.35 238.65L725 240L721.35 241.35L720 245L718.65 241.35L715 240L718.65 238.65L720 235Z" fill="#6C6B6B" fill-opacity="0.25"/>
<path d="M840 235L841.35 238.65L845 240L841.35 241.35L840 245L838.65 241.35L835 240L838.65 238.65L840 235Z" fill="#6C6B6B" fill-opacity="0.25"/>
<path d="M960 235L961.35 238.65L965 240L961.35 241.35L960 245L958.65 241.35L955 240L958.65 238.65L960 235Z" fill="#6C6B6B" fill-opacity="0.25"/>
<path d="M1080 235L1081.35 238.65L1085 240L1081.35 241.35L1080 245L1078.65 241.35L1075 240L1078.65 238.65L1080 235Z" fill="#6C6B6B" fill-opacity="0.25"/>
<path d="M1200 235L1201.35 238.65L1205 240L1201.35 241.35L1200 245L1198.65 241.35L1195 240L1198.65 238.65L1200 235Z" fill="#6C6B6B" fill-opacity="0.25"/>
<path d="M1320 235L1321.35 238.65L1325 240L1321.35 241.35L1320 245L1318.65 241.35L1315 240L1318.65 238.65L1320 235Z" fill="#6C6B6B" fill-opacity="0.25"/>
<path d="M120 355L121.35 358.65L125 360L121.35 361.35L120 365L118.65 361.35L115 360L118.65 358.65L120 355Z" fill="#6C6B6B" fill-opacity="0.25"/>
<path d="M240 355L241.35 358.65L245 360L241.35 361.35L240 365L238.65 361.35L235 360L238.65 358.65L240 355Z" fill="#6C6B6B" fill-opacity="0.25"/>
<path d="M360 355L361.35 358.65L365 360L361.35 361.35L360 365L358.65 361.35L355 360L358.65 358.65L360 355Z" fill="#6C6B6B" fill-opacity="0.25"/>
<path d="M480 355L481.35 358.65L485 360L481.35 361.35L480 365L478.65 361.35L475 360L478.65 358.65L480 355Z" fill="#6C6B6B" fill-opacity="0.25"/>
<path d="M600 355L601.35 358.65L605 360L601.35 361.35L600 365L598.65 361.35L595 360L598.65 358.65L600 355Z" fill="#6C6B6B" fill-opacity="0.25"/>
<path d="M720 355L721.35 358.65L725 360L721.35 361.35L720 365L718.65 361.35L715 360L718.65 358.65L720 355Z" fill="#6C6B6B" fill-opacity="0.25"/>
<path d="M840 355L841.35 358.65L845 360L841.35 361.35L840 365L838.65 361.35L835 360L838.65 358.65L840 355Z" fill="#6C6B6B" fill-opacity="0.25"/>
<path d="M960 355L961.35 358.65L965 360L961.35 361.35L960 365L958.65 361.35L955 360L958.65 358.65L960 355Z" fill="#6C6B6B" fill-opacity="0.25"/>
<path d="M1080 355L1081.35 358.65L1085 360L1081.35 361.35L1080 365L1078.65 361.35L1075 360L1078.65 358.65L1080 355Z" fill="#6C6B6B" fill-opacity="0.25"/>
<path d="M1200 355L1201.35 358.65L1205 360L1201.35 361.35L1200 365L1198.65 361.35L1195 360L1198.65 358.65L1200 355Z" fill="#6C6B6B" fill-opacity="0.25"/>
<path d="M1320 355L1321.35 358.65L1325 360L1321.35 361.35L1320 365L1318.65 361.35L1315 360L1318.65 358.65L1320 355Z" fill="#6C6B6B" fill-opacity="0.25"/>
<path d="M120 475L121.35 478.65L125 480L121.35 481.35L120 485L118.65 481.35L115 480L118.65 478.65L120 475Z" fill="#6C6B6B" fill-opacity="0.25"/>
<path d="M240 475L241.35 478.65L245 480L241.35 481.35L240 485L238.65 481.35L235 480L238.65 478.65L240 475Z" fill="#6C6B6B" fill-opacity="0.25"/>
<path d="M360 475L361.35 478.65L365 480L361.35 481.35L360 485L358.65 481.35L355 480L358.65 478.65L360 475Z" fill="#6C6B6B" fill-opacity="0.25"/>
<path d="M480 475L481.35 478.65L485 480L481.35 481.35L480 485L478.65 481.35L475 480L478.65 478.65L480 475Z" fill="#6C6B6B" fill-opacity="0.25"/>
<path d="M600 475L601.35 478.65L605 480L601.35 481.35L600 485L598.65 481.35L595 480L598.65 478.65L600 475Z" fill="#6C6B6B" fill-opacity="0.25"/>
<path d="M720 475L721.35 478.65L725 480L721.35 481.35L720 485L718.65 481.35L715 480L718.65 478.65L720 475Z" fill="#6C6B6B" fill-opacity="0.25"/>
<path d="M840 475L841.35 478.65L845 480L841.35 481.35L840 485L838.65 481.35L835 480L838.65 478.65L840 475Z" fill="#6C6B6B" fill-opacity="0.25"/>
<path d="M960 475L961.35 478.65L965 480L961.35 481.35L960 485L958.65 481.35L955 480L958.65 478.65L960 475Z" fill="#6C6B6B" fill-opacity="0.25"/>
<path d="M1080 475L1081.35 478.65L1085 480L1081.35 481.35L1080 485L1078.65 481.35L1075 480L1078.65 478.65L1080 475Z" fill="#6C6B6B" fill-opacity="0.25"/>
<path d="M1200 475L1201.35 478.65L1205 480L1201.35 481.35L1200 485L1198.65 481.35L1195 480L1198.65 478.65L1200 475Z" fill="#6C6B6B" fill-opacity="0.25"/>
<path d="M1320 475L1321.35 478.65L1325 480L1321.35 481.35L1320 485L1318.65 481.35L1315 480L1318.65 478.65L1320 475Z" fill="#6C6B6B" fill-opacity="0.25"/>
<path d="M120 595L121.35 598.65L125 600L121.35 601.35L120 605L118.65 601.35L115 600L118.65 598.65L120 595Z" fill="#6C6B6B" fill-opacity="0.25"/>
<path d="M240 595L241.35 598.65L245 600L241.35 601.35L240 605L238.65 601.35L235 600L238.65 598.65L240 595Z" fill="#6C6B6B" fill-opacity="0.25"/>
<path d="M360 595L361.35 598.65L365 600L361.35 601.35L360 605L358.65 601.35L355 600L358.65 598.65L360 595Z" fill="#6C6B6B" fill-opacity="0.25"/>
<path d="M480 595L481.35 598.65L485 600L481.35 601.35L480 605L478.65 601.35L475 600L478.65 598.65L480 595Z" fill="#6C6B6B" fill-opacity="0.25"/>
<path d="M600 595L601.35 598.65L605 600L601.35 601.35L600 605L598.65 601.35L595 600L598.65 598.65L600 595Z" fill="#6C6B6B" fill-opacity="0.25"/>
<path d="M720 595L721.35 598.65L725 600L721.35 601.35L720 605L718.65 601.35L715 600L718.65 598.65L720 595Z" fill="#6C6B6B" fill-opacity="0.25"/>
<path d="M840 595L841.35 598.65L845 600L841.35 601.35L840 605L838.65 601.35L835 600L838.65 598.65L840 595Z" fill="#6C6B6B" fill-opacity="0.25"/>
<path d="M960 595L961.35 598.65L965 600L961.35 601.35L960 605L958.65 601.35L955 600L958.65 598.65L960 595Z" fill="#6C6B6B" fill-opacity="0.25"/>
<path d="M1080 595L1081.35 598.65L1085 600L1081.35 601.35L1080 605L1078.65 601.35L1075 600L1078.65 598.65L1080 595Z" fill="#6C6B6B" fill-opacity="0.25"/>
<path d="M1200 595L1201.35 598.65L1205 600L1201.35 601.35L1200 605L1198.65 601.35L1195 600L1198.65 598.65L1200 595Z" fill="#6C6B6B" fill-opacity="0.25"/>
<path d="M1320 595L1321.35 598.65L1325 600L1321.35 601.35L1320 605L1318.65 601.35L1315 600L1318.65 598.65L1320 595Z" fill="#6C6B6B" fill-opacity="0.25"/>
<path d="M120 715L121.35 718.65L125 720L121.35 721.35L120 725L118.65 721.35L115 720L118.65 718.65L120 715Z" fill="#6C6B6B" fill-opacity="0.25"/>
<path d="M240 715L241.35 718.65L245 720L241.35 721.35L240 725L238.65 721.35L235 720L238.65 718.65L240 715Z" fill="#6C6B6B" fill-opacity="0.25"/>
<path d="M360 715L361.35 718.65L365 720L361.35 721.35L360 725L358.65 721.35L355 720L358.65 718.65L360 715Z" fill="#6C6B6B" fill-opacity="0.25"/>
<path d="M480 715L481.35 718.65L485 720L481.35 721.35L480 725L478.65 721.35L475 720L478.65 718.65L480 715Z" fill="#6C6B6B" fill-opacity="0.25"/>
<path d="M600 715L601.35 718.65L605 720L601.35 721.35L600 725L598.65 721.35L595 720L598.65 718.65L600 715Z" fill="#6C6B6B" fill-opacity="0.25"/>
<path d="M720 715L721.35 718.65L725 720L721.35 721.35L720 725L718.65 721.35L715 720L718.65 718.65L720 715Z" fill="#6C6B6B" fill-opacity="0.25"/>
<path d="M840 715L841.35 718.65L845 720L841.35 721.35L840 725L838.65 721.35L835 720L838.65 718.65L840 715Z" fill="#6C6B6B" fill-opacity="0.25"/>
<path d="M960 715L961.35 718.65L965 720L961.35 721.35L960 725L958.65 721.35L955 720L958.65 718.65L960 715Z" fill="#6C6B6B" fill-opacity="0.25"/>
<path d="M1080 715L1081.35 718.65L1085 720L1081.35 721.35L1080 725L1078.65 721.35L1075 720L1078.65 718.65L1080 715Z" fill="#6C6B6B" fill-opacity="0.25"/>
<path d="M1200 715L1201.35 718.65L1205 720L1201.35 721.35L1200 725L1198.65 721.35L1195 720L1198.65 718.65L1200 715Z" fill="#6C6B6B" fill-opacity="0.25"/>
<path d="M1320 715L1321.35 718.65L1325 720L1321.35 721.35L1320 725L1318.65 721.35L1315 720L1318.65 718.65L1320 715Z" fill="#6C6B6B" fill-opacity="0.25"/>
<path d="M120 835L121.35 838.65L125 840L121.35 841.35L120 845L118.65 841.35L115 840L118.65 838.65L120 835Z" fill="#6C6B6B" fill-opacity="0.25"/>
<path d="M240 835L241.35 838.65L245 840L241.35 841.35L240 845L238.65 841.35L235 840L238.65 838.65L240 835Z" fill="#6C6B6B" fill-opacity="0.25"/>
<path d="M360 835L361.35 838.65L365 840L361.35 841.35L360 845L358.65 841.35L355 840L358.65 838.65L360 835Z" fill="#6C6B6B" fill-opacity="0.25"/>
<path d="M480 835L481.35 838.65L485 840L481.35 841.35L480 845L478.65 841.35L475 840L478.65 838.65L480 835Z" fill="#6C6B6B" fill-opacity="0.25"/>
<path d="M600 835L601.35 838.65L605 840L601.35 841.35L600 845L598.65 841.35L595 840L598.65 838.65L600 835Z" fill="#6C6B6B" fill-opacity="0.25"/>
<path d="M720 835L721.35 838.65L725 840L721.35 841.35L720 845L718.65 841.35L715 840L718.65 838.65L720 835Z" fill="#6C6B6B" fill-opacity="0.25"/>
<path d="M840 835L841.35 838.65L845 840L841.35 841.35L840 845L838.65 841.35L835 840L838.65 838.65L840 835Z" fill="#6C6B6B" fill-opacity="0.25"/>
<path d="M960 835L961.35 838.65L965 840L961.35 841.35L960 845L958.65 841.35L955 840L958.65 838.65L960 835Z" fill="#6C6B6B" fill-opacity="0.25"/>
<path d="M1080 835L1081.35 838.65L1085 840L1081.35 841.35L1080 845L1078.65 841.35L1075 840L1078.65 838.65L1080 835Z" fill="#6C6B6B" fill-opacity="0.25"/>
<path d="M1200 835L1201.35 838.65L1205 840L1201.35 841.35L1200 845L1198.65 841.35L1195 840L1198.65 838.65L1200 835Z" fill="#6C6B6B" fill-opacity="0.25"/>
<path d="M1320 835L1321.35 838.65L1325 840L1321.35 841.35L1320 845L1318.65 841.35L1315 840L1318.65 838.65L1320 835Z" fill="#6C6B6B" fill-opacity="0.25"/>
<line y1="119.875" x2="105" y2="119.875" stroke="#6C6B6B" stroke-opacity="0.6" stroke-width="0.25"/>
<line x1="239.875" y1="105" x2="239.875" stroke="#6C6B6B" stroke-opacity="0.6" stroke-width="0.25"/>
<line x1="839.875" y1="105" x2="839.875" stroke="#6C6B6B" stroke-opacity="0.6" stroke-width="0.25"/>
<line x1="359.875" y1="105" x2="359.875" stroke="#6C6B6B" stroke-opacity="0.6" stroke-width="0.25"/>
<line x1="959.875" y1="105" x2="959.875" stroke="#6C6B6B" stroke-opacity="0.6" stroke-width="0.25"/>
<line x1="479.875" y1="105" x2="479.875" stroke="#6C6B6B" stroke-opacity="0.6" stroke-width="0.25"/>
<line x1="1079.88" y1="105" x2="1079.88" stroke="#6C6B6B" stroke-opacity="0.6" stroke-width="0.25"/>
<line x1="599.875" y1="105" x2="599.875" stroke="#6C6B6B" stroke-opacity="0.6" stroke-width="0.25"/>
<line x1="1199.88" y1="105" x2="1199.88" stroke="#6C6B6B" stroke-opacity="0.6" stroke-width="0.25"/>
<line x1="1319.88" y1="105" x2="1319.88" stroke="#6C6B6B" stroke-opacity="0.6" stroke-width="0.25"/>
<line x1="119.875" y1="105" x2="119.875" stroke="#6C6B6B" stroke-opacity="0.6" stroke-width="0.25"/>
<line x1="719.875" y1="105" x2="719.875" stroke="#6C6B6B" stroke-opacity="0.6" stroke-width="0.25"/>
<line x1="239.875" y1="840" x2="239.875" y2="735" stroke="#6C6B6B" stroke-opacity="0.6" stroke-width="0.25"/>
<line x1="839.875" y1="840" x2="839.875" y2="735" stroke="#6C6B6B" stroke-opacity="0.6" stroke-width="0.25"/>
<line x1="359.875" y1="840" x2="359.875" y2="735" stroke="#6C6B6B" stroke-opacity="0.6" stroke-width="0.25"/>
<line x1="959.875" y1="840" x2="959.875" y2="735" stroke="#6C6B6B" stroke-opacity="0.6" stroke-width="0.25"/>
<line x1="479.875" y1="840" x2="479.875" y2="735" stroke="#6C6B6B" stroke-opacity="0.6" stroke-width="0.25"/>
<line x1="1079.88" y1="840" x2="1079.88" y2="735" stroke="#6C6B6B" stroke-opacity="0.6" stroke-width="0.25"/>
<line x1="599.875" y1="840" x2="599.875" y2="735" stroke="#6C6B6B" stroke-opacity="0.6" stroke-width="0.25"/>
<line x1="1199.88" y1="840" x2="1199.88" y2="735" stroke="#6C6B6B" stroke-opacity="0.6" stroke-width="0.25"/>
<line x1="1319.88" y1="840" x2="1319.88" y2="735" stroke="#6C6B6B" stroke-opacity="0.6" stroke-width="0.25"/>
<line x1="119.875" y1="840" x2="119.875" y2="735" stroke="#6C6B6B" stroke-opacity="0.6" stroke-width="0.25"/>
<line x1="719.875" y1="840" x2="719.875" y2="735" stroke="#6C6B6B" stroke-opacity="0.6" stroke-width="0.25"/>
<line y1="239.875" x2="105" y2="239.875" stroke="#6C6B6B" stroke-opacity="0.6" stroke-width="0.25"/>
<line y1="359.875" x2="105" y2="359.875" stroke="#6C6B6B" stroke-opacity="0.6" stroke-width="0.25"/>
<line y1="479.875" x2="105" y2="479.875" stroke="#6C6B6B" stroke-opacity="0.6" stroke-width="0.25"/>
<line y1="599.875" x2="105" y2="599.875" stroke="#6C6B6B" stroke-opacity="0.6" stroke-width="0.25"/>
<line y1="719.875" x2="105" y2="719.875" stroke="#6C6B6B" stroke-opacity="0.6" stroke-width="0.25"/>
<line y1="839.875" x2="105" y2="839.875" stroke="#6C6B6B" stroke-opacity="0.6" stroke-width="0.25"/>
<line x1="135" y1="119.875" x2="225" y2="119.875" stroke="#6C6B6B" stroke-opacity="0.6" stroke-width="0.25"/>
<line x1="135" y1="239.875" x2="225" y2="239.875" stroke="#6C6B6B" stroke-opacity="0.6" stroke-width="0.25"/>
<line x1="135" y1="359.875" x2="225" y2="359.875" stroke="#6C6B6B" stroke-opacity="0.6" stroke-width="0.25"/>
<line x1="135" y1="479.875" x2="225" y2="479.875" stroke="#6C6B6B" stroke-opacity="0.6" stroke-width="0.25"/>
<line x1="135" y1="599.875" x2="225" y2="599.875" stroke="#6C6B6B" stroke-opacity="0.6" stroke-width="0.25"/>
<line x1="119.875" y1="705" x2="119.875" y2="615" stroke="#6C6B6B" stroke-opacity="0.6" stroke-width="0.25"/>
<line x1="839.875" y1="705" x2="839.875" y2="615" stroke="#6C6B6B" stroke-opacity="0.6" stroke-width="0.25"/>
<line x1="479.875" y1="705" x2="479.875" y2="615" stroke="#6C6B6B" stroke-opacity="0.6" stroke-width="0.25"/>
<line x1="1199.88" y1="705" x2="1199.88" y2="615" stroke="#6C6B6B" stroke-opacity="0.6" stroke-width="0.25"/>
<line x1="239.875" y1="705" x2="239.875" y2="615" stroke="#6C6B6B" stroke-opacity="0.6" stroke-width="0.25"/>
<line x1="959.875" y1="705" x2="959.875" y2="615" stroke="#6C6B6B" stroke-opacity="0.6" stroke-width="0.25"/>
<line x1="599.875" y1="705" x2="599.875" y2="615" stroke="#6C6B6B" stroke-opacity="0.6" stroke-width="0.25"/>
<line x1="1319.88" y1="705" x2="1319.88" y2="615" stroke="#6C6B6B" stroke-opacity="0.6" stroke-width="0.25"/>
<line x1="359.875" y1="705" x2="359.875" y2="615" stroke="#6C6B6B" stroke-opacity="0.6" stroke-width="0.25"/>
<line x1="1079.88" y1="705" x2="1079.88" y2="615" stroke="#6C6B6B" stroke-opacity="0.6" stroke-width="0.25"/>
<line x1="719.875" y1="705" x2="719.875" y2="615" stroke="#6C6B6B" stroke-opacity="0.6" stroke-width="0.25"/>
<line x1="119.875" y1="585" x2="119.875" y2="495" stroke="#6C6B6B" stroke-opacity="0.6" stroke-width="0.25"/>
<line x1="839.875" y1="585" x2="839.875" y2="495" stroke="#6C6B6B" stroke-opacity="0.6" stroke-width="0.25"/>
<line x1="479.875" y1="585" x2="479.875" y2="495" stroke="#6C6B6B" stroke-opacity="0.6" stroke-width="0.25"/>
<line x1="1199.88" y1="585" x2="1199.88" y2="495" stroke="#6C6B6B" stroke-opacity="0.6" stroke-width="0.25"/>
<line x1="239.875" y1="585" x2="239.875" y2="495" stroke="#6C6B6B" stroke-opacity="0.6" stroke-width="0.25"/>
<line x1="959.875" y1="585" x2="959.875" y2="495" stroke="#6C6B6B" stroke-opacity="0.6" stroke-width="0.25"/>
<line x1="599.875" y1="585" x2="599.875" y2="495" stroke="#6C6B6B" stroke-opacity="0.6" stroke-width="0.25"/>
<line x1="1319.88" y1="585" x2="1319.88" y2="495" stroke="#6C6B6B" stroke-opacity="0.6" stroke-width="0.25"/>
<line x1="359.875" y1="585" x2="359.875" y2="495" stroke="#6C6B6B" stroke-opacity="0.6" stroke-width="0.25"/>
<line x1="1079.88" y1="585" x2="1079.88" y2="495" stroke="#6C6B6B" stroke-opacity="0.6" stroke-width="0.25"/>
<line x1="719.875" y1="585" x2="719.875" y2="495" stroke="#6C6B6B" stroke-opacity="0.6" stroke-width="0.25"/>
<line x1="119.875" y1="465" x2="119.875" y2="375" stroke="#6C6B6B" stroke-opacity="0.6" stroke-width="0.25"/>
<line x1="839.875" y1="465" x2="839.875" y2="375" stroke="#6C6B6B" stroke-opacity="0.6" stroke-width="0.25"/>
<line x1="479.875" y1="465" x2="479.875" y2="375" stroke="#6C6B6B" stroke-opacity="0.6" stroke-width="0.25"/>
<line x1="1199.88" y1="465" x2="1199.88" y2="375" stroke="#6C6B6B" stroke-opacity="0.6" stroke-width="0.25"/>
<line x1="239.875" y1="465" x2="239.875" y2="375" stroke="#6C6B6B" stroke-opacity="0.6" stroke-width="0.25"/>
<line x1="959.875" y1="465" x2="959.875" y2="375" stroke="#6C6B6B" stroke-opacity="0.6" stroke-width="0.25"/>
<line x1="599.875" y1="465" x2="599.875" y2="375" stroke="#6C6B6B" stroke-opacity="0.6" stroke-width="0.25"/>
<line x1="1319.88" y1="465" x2="1319.88" y2="375" stroke="#6C6B6B" stroke-opacity="0.6" stroke-width="0.25"/>
<line x1="359.875" y1="465" x2="359.875" y2="375" stroke="#6C6B6B" stroke-opacity="0.6" stroke-width="0.25"/>
<line x1="1079.88" y1="465" x2="1079.88" y2="375" stroke="#6C6B6B" stroke-opacity="0.6" stroke-width="0.25"/>
<line x1="719.875" y1="465" x2="719.875" y2="375" stroke="#6C6B6B" stroke-opacity="0.6" stroke-width="0.25"/>
<line x1="119.875" y1="345" x2="119.875" y2="255" stroke="#6C6B6B" stroke-opacity="0.6" stroke-width="0.25"/>
<line x1="839.875" y1="345" x2="839.875" y2="255" stroke="#6C6B6B" stroke-opacity="0.6" stroke-width="0.25"/>
<line x1="479.875" y1="345" x2="479.875" y2="255" stroke="#6C6B6B" stroke-opacity="0.6" stroke-width="0.25"/>
<line x1="1199.88" y1="345" x2="1199.88" y2="255" stroke="#6C6B6B" stroke-opacity="0.6" stroke-width="0.25"/>
<line x1="239.875" y1="345" x2="239.875" y2="255" stroke="#6C6B6B" stroke-opacity="0.6" stroke-width="0.25"/>
<line x1="959.875" y1="345" x2="959.875" y2="255" stroke="#6C6B6B" stroke-opacity="0.6" stroke-width="0.25"/>
<line x1="599.875" y1="345" x2="599.875" y2="255" stroke="#6C6B6B" stroke-opacity="0.6" stroke-width="0.25"/>
<line x1="1319.88" y1="345" x2="1319.88" y2="255" stroke="#6C6B6B" stroke-opacity="0.6" stroke-width="0.25"/>
<line x1="359.875" y1="345" x2="359.875" y2="255" stroke="#6C6B6B" stroke-opacity="0.6" stroke-width="0.25"/>
<line x1="1079.88" y1="345" x2="1079.88" y2="255" stroke="#6C6B6B" stroke-opacity="0.6" stroke-width="0.25"/>
<line x1="719.875" y1="345" x2="719.875" y2="255" stroke="#6C6B6B" stroke-opacity="0.6" stroke-width="0.25"/>
<line x1="119.875" y1="225" x2="119.875" y2="135" stroke="#6C6B6B" stroke-opacity="0.6" stroke-width="0.25"/>
<line x1="839.875" y1="225" x2="839.875" y2="135" stroke="#6C6B6B" stroke-opacity="0.6" stroke-width="0.25"/>
<line x1="479.875" y1="225" x2="479.875" y2="135" stroke="#6C6B6B" stroke-opacity="0.6" stroke-width="0.25"/>
<line x1="1199.88" y1="225" x2="1199.88" y2="135" stroke="#6C6B6B" stroke-opacity="0.6" stroke-width="0.25"/>
<line x1="239.875" y1="225" x2="239.875" y2="135" stroke="#6C6B6B" stroke-opacity="0.6" stroke-width="0.25"/>
<line x1="959.875" y1="225" x2="959.875" y2="135" stroke="#6C6B6B" stroke-opacity="0.6" stroke-width="0.25"/>
<line x1="599.875" y1="225" x2="599.875" y2="135" stroke="#6C6B6B" stroke-opacity="0.6" stroke-width="0.25"/>
<line x1="1319.88" y1="225" x2="1319.88" y2="135" stroke="#6C6B6B" stroke-opacity="0.6" stroke-width="0.25"/>
<line x1="359.875" y1="225" x2="359.875" y2="135" stroke="#6C6B6B" stroke-opacity="0.6" stroke-width="0.25"/>
<line x1="1079.88" y1="225" x2="1079.88" y2="135" stroke="#6C6B6B" stroke-opacity="0.6" stroke-width="0.25"/>
<line x1="719.875" y1="225" x2="719.875" y2="135" stroke="#6C6B6B" stroke-opacity="0.6" stroke-width="0.25"/>
<line x1="135" y1="719.875" x2="225" y2="719.875" stroke="#6C6B6B" stroke-opacity="0.6" stroke-width="0.25"/>
<line x1="135" y1="839.875" x2="225" y2="839.875" stroke="#6C6B6B" stroke-opacity="0.6" stroke-width="0.25"/>
<line x1="255" y1="119.875" x2="345" y2="119.875" stroke="#6C6B6B" stroke-opacity="0.6" stroke-width="0.25"/>
<line x1="255" y1="239.875" x2="345" y2="239.875" stroke="#6C6B6B" stroke-opacity="0.6" stroke-width="0.25"/>
<line x1="255" y1="359.875" x2="345" y2="359.875" stroke="#6C6B6B" stroke-opacity="0.6" stroke-width="0.25"/>
<line x1="255" y1="479.875" x2="345" y2="479.875" stroke="#6C6B6B" stroke-opacity="0.6" stroke-width="0.25"/>
<line x1="255" y1="599.875" x2="345" y2="599.875" stroke="#6C6B6B" stroke-opacity="0.6" stroke-width="0.25"/>
<line x1="255" y1="719.875" x2="345" y2="719.875" stroke="#6C6B6B" stroke-opacity="0.6" stroke-width="0.25"/>
<line x1="255" y1="839.875" x2="345" y2="839.875" stroke="#6C6B6B" stroke-opacity="0.6" stroke-width="0.25"/>
<line x1="375" y1="119.875" x2="465" y2="119.875" stroke="#6C6B6B" stroke-opacity="0.6" stroke-width="0.25"/>
<line x1="375" y1="239.875" x2="465" y2="239.875" stroke="#6C6B6B" stroke-opacity="0.6" stroke-width="0.25"/>
<line x1="375" y1="359.875" x2="465" y2="359.875" stroke="#6C6B6B" stroke-opacity="0.6" stroke-width="0.25"/>
<line x1="375" y1="479.875" x2="465" y2="479.875" stroke="#6C6B6B" stroke-opacity="0.6" stroke-width="0.25"/>
<line x1="375" y1="599.875" x2="465" y2="599.875" stroke="#6C6B6B" stroke-opacity="0.6" stroke-width="0.25"/>
<line x1="375" y1="719.875" x2="465" y2="719.875" stroke="#6C6B6B" stroke-opacity="0.6" stroke-width="0.25"/>
<line x1="375" y1="839.875" x2="465" y2="839.875" stroke="#6C6B6B" stroke-opacity="0.6" stroke-width="0.25"/>
<line x1="495" y1="119.875" x2="585" y2="119.875" stroke="#6C6B6B" stroke-opacity="0.6" stroke-width="0.25"/>
<line x1="495" y1="239.875" x2="585" y2="239.875" stroke="#6C6B6B" stroke-opacity="0.6" stroke-width="0.25"/>
<line x1="495" y1="359.875" x2="585" y2="359.875" stroke="#6C6B6B" stroke-opacity="0.6" stroke-width="0.25"/>
<line x1="495" y1="479.875" x2="585" y2="479.875" stroke="#6C6B6B" stroke-opacity="0.6" stroke-width="0.25"/>
<line x1="495" y1="599.875" x2="585" y2="599.875" stroke="#6C6B6B" stroke-opacity="0.6" stroke-width="0.25"/>
<line x1="495" y1="719.875" x2="585" y2="719.875" stroke="#6C6B6B" stroke-opacity="0.6" stroke-width="0.25"/>
<line x1="495" y1="839.875" x2="585" y2="839.875" stroke="#6C6B6B" stroke-opacity="0.6" stroke-width="0.25"/>
<line x1="615" y1="119.875" x2="705" y2="119.875" stroke="#6C6B6B" stroke-opacity="0.6" stroke-width="0.25"/>
<line x1="615" y1="239.875" x2="705" y2="239.875" stroke="#6C6B6B" stroke-opacity="0.6" stroke-width="0.25"/>
<line x1="615" y1="359.875" x2="705" y2="359.875" stroke="#6C6B6B" stroke-opacity="0.6" stroke-width="0.25"/>
<line x1="615" y1="479.875" x2="705" y2="479.875" stroke="#6C6B6B" stroke-opacity="0.6" stroke-width="0.25"/>
<line x1="615" y1="599.875" x2="705" y2="599.875" stroke="#6C6B6B" stroke-opacity="0.6" stroke-width="0.25"/>
<line x1="615" y1="719.875" x2="705" y2="719.875" stroke="#6C6B6B" stroke-opacity="0.6" stroke-width="0.25"/>
<line x1="615" y1="839.875" x2="705" y2="839.875" stroke="#6C6B6B" stroke-opacity="0.6" stroke-width="0.25"/>
<line x1="735" y1="119.875" x2="825" y2="119.875" stroke="#6C6B6B" stroke-opacity="0.6" stroke-width="0.25"/>
<line x1="735" y1="239.875" x2="825" y2="239.875" stroke="#6C6B6B" stroke-opacity="0.6" stroke-width="0.25"/>
<line x1="735" y1="359.875" x2="825" y2="359.875" stroke="#6C6B6B" stroke-opacity="0.6" stroke-width="0.25"/>
<line x1="735" y1="479.875" x2="825" y2="479.875" stroke="#6C6B6B" stroke-opacity="0.6" stroke-width="0.25"/>
<line x1="735" y1="599.875" x2="825" y2="599.875" stroke="#6C6B6B" stroke-opacity="0.6" stroke-width="0.25"/>
<line x1="735" y1="719.875" x2="825" y2="719.875" stroke="#6C6B6B" stroke-opacity="0.6" stroke-width="0.25"/>
<line x1="735" y1="839.875" x2="825" y2="839.875" stroke="#6C6B6B" stroke-opacity="0.6" stroke-width="0.25"/>
<line x1="855" y1="119.875" x2="945" y2="119.875" stroke="#6C6B6B" stroke-opacity="0.6" stroke-width="0.25"/>
<line x1="855" y1="239.875" x2="945" y2="239.875" stroke="#6C6B6B" stroke-opacity="0.6" stroke-width="0.25"/>
<line x1="855" y1="359.875" x2="945" y2="359.875" stroke="#6C6B6B" stroke-opacity="0.6" stroke-width="0.25"/>
<line x1="855" y1="479.875" x2="945" y2="479.875" stroke="#6C6B6B" stroke-opacity="0.6" stroke-width="0.25"/>
<line x1="855" y1="599.875" x2="945" y2="599.875" stroke="#6C6B6B" stroke-opacity="0.6" stroke-width="0.25"/>
<line x1="855" y1="719.875" x2="945" y2="719.875" stroke="#6C6B6B" stroke-opacity="0.6" stroke-width="0.25"/>
<line x1="855" y1="839.875" x2="945" y2="839.875" stroke="#6C6B6B" stroke-opacity="0.6" stroke-width="0.25"/>
<line x1="975" y1="119.875" x2="1065" y2="119.875" stroke="#6C6B6B" stroke-opacity="0.6" stroke-width="0.25"/>
<line x1="975" y1="239.875" x2="1065" y2="239.875" stroke="#6C6B6B" stroke-opacity="0.6" stroke-width="0.25"/>
<line x1="975" y1="359.875" x2="1065" y2="359.875" stroke="#6C6B6B" stroke-opacity="0.6" stroke-width="0.25"/>
<line x1="975" y1="479.875" x2="1065" y2="479.875" stroke="#6C6B6B" stroke-opacity="0.6" stroke-width="0.25"/>
<line x1="975" y1="599.875" x2="1065" y2="599.875" stroke="#6C6B6B" stroke-opacity="0.6" stroke-width="0.25"/>
<line x1="975" y1="719.875" x2="1065" y2="719.875" stroke="#6C6B6B" stroke-opacity="0.6" stroke-width="0.25"/>
<line x1="975" y1="839.875" x2="1065" y2="839.875" stroke="#6C6B6B" stroke-opacity="0.6" stroke-width="0.25"/>
<line x1="1095" y1="119.875" x2="1185" y2="119.875" stroke="#6C6B6B" stroke-opacity="0.6" stroke-width="0.25"/>
<line x1="1095" y1="239.875" x2="1185" y2="239.875" stroke="#6C6B6B" stroke-opacity="0.6" stroke-width="0.25"/>
<line x1="1095" y1="359.875" x2="1185" y2="359.875" stroke="#6C6B6B" stroke-opacity="0.6" stroke-width="0.25"/>
<line x1="1095" y1="479.875" x2="1185" y2="479.875" stroke="#6C6B6B" stroke-opacity="0.6" stroke-width="0.25"/>
<line x1="1095" y1="599.875" x2="1185" y2="599.875" stroke="#6C6B6B" stroke-opacity="0.6" stroke-width="0.25"/>
<line x1="1095" y1="719.875" x2="1185" y2="719.875" stroke="#6C6B6B" stroke-opacity="0.6" stroke-width="0.25"/>
<line x1="1095" y1="839.875" x2="1185" y2="839.875" stroke="#6C6B6B" stroke-opacity="0.6" stroke-width="0.25"/>
<line x1="1215" y1="119.875" x2="1305" y2="119.875" stroke="#6C6B6B" stroke-opacity="0.6" stroke-width="0.25"/>
<line x1="1215" y1="239.875" x2="1305" y2="239.875" stroke="#6C6B6B" stroke-opacity="0.6" stroke-width="0.25"/>
<line x1="1215" y1="359.875" x2="1305" y2="359.875" stroke="#6C6B6B" stroke-opacity="0.6" stroke-width="0.25"/>
<line x1="1215" y1="479.875" x2="1305" y2="479.875" stroke="#6C6B6B" stroke-opacity="0.6" stroke-width="0.25"/>
<line x1="1215" y1="599.875" x2="1305" y2="599.875" stroke="#6C6B6B" stroke-opacity="0.6" stroke-width="0.25"/>
<line x1="1215" y1="719.875" x2="1305" y2="719.875" stroke="#6C6B6B" stroke-opacity="0.6" stroke-width="0.25"/>
<line x1="1215" y1="839.875" x2="1305" y2="839.875" stroke="#6C6B6B" stroke-opacity="0.6" stroke-width="0.25"/>
<line x1="1335" y1="119.875" x2="1440" y2="119.875" stroke="#6C6B6B" stroke-opacity="0.6" stroke-width="0.25"/>
<line x1="1335" y1="239.875" x2="1440" y2="239.875" stroke="#6C6B6B" stroke-opacity="0.6" stroke-width="0.25"/>
<line x1="1335" y1="359.875" x2="1440" y2="359.875" stroke="#6C6B6B" stroke-opacity="0.6" stroke-width="0.25"/>
<line x1="1335" y1="479.875" x2="1440" y2="479.875" stroke="#6C6B6B" stroke-opacity="0.6" stroke-width="0.25"/>
<line x1="1335" y1="599.875" x2="1440" y2="599.875" stroke="#6C6B6B" stroke-opacity="0.6" stroke-width="0.25"/>
<line x1="1335" y1="719.875" x2="1440" y2="719.875" stroke="#6C6B6B" stroke-opacity="0.6" stroke-width="0.25"/>
<line x1="1335" y1="839.875" x2="1440" y2="839.875" stroke="#6C6B6B" stroke-opacity="0.6" stroke-width="0.25"/>
<path d="M120 955L121.35 958.65L125 960L121.35 961.35L120 965L118.65 961.35L115 960L118.65 958.65L120 955Z" fill="#6C6B6B" fill-opacity="0.25"/>
<path d="M240 955L241.35 958.65L245 960L241.35 961.35L240 965L238.65 961.35L235 960L238.65 958.65L240 955Z" fill="#6C6B6B" fill-opacity="0.25"/>
<path d="M360 955L361.35 958.65L365 960L361.35 961.35L360 965L358.65 961.35L355 960L358.65 958.65L360 955Z" fill="#6C6B6B" fill-opacity="0.25"/>
<path d="M480 955L481.35 958.65L485 960L481.35 961.35L480 965L478.65 961.35L475 960L478.65 958.65L480 955Z" fill="#6C6B6B" fill-opacity="0.25"/>
<path d="M600 955L601.35 958.65L605 960L601.35 961.35L600 965L598.65 961.35L595 960L598.65 958.65L600 955Z" fill="#6C6B6B" fill-opacity="0.25"/>
<path d="M720 955L721.35 958.65L725 960L721.35 961.35L720 965L718.65 961.35L715 960L718.65 958.65L720 955Z" fill="#6C6B6B" fill-opacity="0.25"/>
<path d="M840 955L841.35 958.65L845 960L841.35 961.35L840 965L838.65 961.35L835 960L838.65 958.65L840 955Z" fill="#6C6B6B" fill-opacity="0.25"/>
<path d="M960 955L961.35 958.65L965 960L961.35 961.35L960 965L958.65 961.35L955 960L958.65 958.65L960 955Z" fill="#6C6B6B" fill-opacity="0.25"/>
<path d="M1080 955L1081.35 958.65L1085 960L1081.35 961.35L1080 965L1078.65 961.35L1075 960L1078.65 958.65L1080 955Z" fill="#6C6B6B" fill-opacity="0.25"/>
<path d="M1200 955L1201.35 958.65L1205 960L1201.35 961.35L1200 965L1198.65 961.35L1195 960L1198.65 958.65L1200 955Z" fill="#6C6B6B" fill-opacity="0.25"/>
<path d="M1320 955L1321.35 958.65L1325 960L1321.35 961.35L1320 965L1318.65 961.35L1315 960L1318.65 958.65L1320 955Z" fill="#6C6B6B" fill-opacity="0.25"/>
<path d="M120 1075L121.35 1078.65L125 1080L121.35 1081.35L120 1085L118.65 1081.35L115 1080L118.65 1078.65L120 1075Z" fill="#6C6B6B" fill-opacity="0.25"/>
<path d="M240 1075L241.35 1078.65L245 1080L241.35 1081.35L240 1085L238.65 1081.35L235 1080L238.65 1078.65L240 1075Z" fill="#6C6B6B" fill-opacity="0.25"/>
<path d="M360 1075L361.35 1078.65L365 1080L361.35 1081.35L360 1085L358.65 1081.35L355 1080L358.65 1078.65L360 1075Z" fill="#6C6B6B" fill-opacity="0.25"/>
<path d="M480 1075L481.35 1078.65L485 1080L481.35 1081.35L480 1085L478.65 1081.35L475 1080L478.65 1078.65L480 1075Z" fill="#6C6B6B" fill-opacity="0.25"/>
<path d="M600 1075L601.35 1078.65L605 1080L601.35 1081.35L600 1085L598.65 1081.35L595 1080L598.65 1078.65L600 1075Z" fill="#6C6B6B" fill-opacity="0.25"/>
<path d="M720 1075L721.35 1078.65L725 1080L721.35 1081.35L720 1085L718.65 1081.35L715 1080L718.65 1078.65L720 1075Z" fill="#6C6B6B" fill-opacity="0.25"/>
<path d="M840 1075L841.35 1078.65L845 1080L841.35 1081.35L840 1085L838.65 1081.35L835 1080L838.65 1078.65L840 1075Z" fill="#6C6B6B" fill-opacity="0.25"/>
<path d="M960 1075L961.35 1078.65L965 1080L961.35 1081.35L960 1085L958.65 1081.35L955 1080L958.65 1078.65L960 1075Z" fill="#6C6B6B" fill-opacity="0.25"/>
<path d="M1080 1075L1081.35 1078.65L1085 1080L1081.35 1081.35L1080 1085L1078.65 1081.35L1075 1080L1078.65 1078.65L1080 1075Z" fill="#6C6B6B" fill-opacity="0.25"/>
<path d="M1200 1075L1201.35 1078.65L1205 1080L1201.35 1081.35L1200 1085L1198.65 1081.35L1195 1080L1198.65 1078.65L1200 1075Z" fill="#6C6B6B" fill-opacity="0.25"/>
<path d="M1320 1075L1321.35 1078.65L1325 1080L1321.35 1081.35L1320 1085L1318.65 1081.35L1315 1080L1318.65 1078.65L1320 1075Z" fill="#6C6B6B" fill-opacity="0.25"/>
<line x1="239.875" y1="1080" x2="239.875" y2="975" stroke="#6C6B6B" stroke-opacity="0.6" stroke-width="0.25"/>
<line x1="839.875" y1="1080" x2="839.875" y2="975" stroke="#6C6B6B" stroke-opacity="0.6" stroke-width="0.25"/>
<line x1="359.875" y1="1080" x2="359.875" y2="975" stroke="#6C6B6B" stroke-opacity="0.6" stroke-width="0.25"/>
<line x1="959.875" y1="1080" x2="959.875" y2="975" stroke="#6C6B6B" stroke-opacity="0.6" stroke-width="0.25"/>
<line x1="479.875" y1="1080" x2="479.875" y2="975" stroke="#6C6B6B" stroke-opacity="0.6" stroke-width="0.25"/>
<line x1="1079.88" y1="1080" x2="1079.88" y2="975" stroke="#6C6B6B" stroke-opacity="0.6" stroke-width="0.25"/>
<line x1="599.875" y1="1080" x2="599.875" y2="975" stroke="#6C6B6B" stroke-opacity="0.6" stroke-width="0.25"/>
<line x1="1199.88" y1="1080" x2="1199.88" y2="975" stroke="#6C6B6B" stroke-opacity="0.6" stroke-width="0.25"/>
<line x1="1319.88" y1="1080" x2="1319.88" y2="975" stroke="#6C6B6B" stroke-opacity="0.6" stroke-width="0.25"/>
<line x1="119.875" y1="1080" x2="119.875" y2="975" stroke="#6C6B6B" stroke-opacity="0.6" stroke-width="0.25"/>
<line x1="719.875" y1="1080" x2="719.875" y2="975" stroke="#6C6B6B" stroke-opacity="0.6" stroke-width="0.25"/>
<line y1="959.875" x2="105" y2="959.875" stroke="#6C6B6B" stroke-opacity="0.6" stroke-width="0.25"/>
<line y1="1079.88" x2="105" y2="1079.88" stroke="#6C6B6B" stroke-opacity="0.6" stroke-width="0.25"/>
<line x1="119.875" y1="945" x2="119.875" y2="855" stroke="#6C6B6B" stroke-opacity="0.6" stroke-width="0.25"/>
<line x1="839.875" y1="945" x2="839.875" y2="855" stroke="#6C6B6B" stroke-opacity="0.6" stroke-width="0.25"/>
<line x1="479.875" y1="945" x2="479.875" y2="855" stroke="#6C6B6B" stroke-opacity="0.6" stroke-width="0.25"/>
<line x1="1199.88" y1="945" x2="1199.88" y2="855" stroke="#6C6B6B" stroke-opacity="0.6" stroke-width="0.25"/>
<line x1="239.875" y1="945" x2="239.875" y2="855" stroke="#6C6B6B" stroke-opacity="0.6" stroke-width="0.25"/>
<line x1="959.875" y1="945" x2="959.875" y2="855" stroke="#6C6B6B" stroke-opacity="0.6" stroke-width="0.25"/>
<line x1="599.875" y1="945" x2="599.875" y2="855" stroke="#6C6B6B" stroke-opacity="0.6" stroke-width="0.25"/>
<line x1="1319.88" y1="945" x2="1319.88" y2="855" stroke="#6C6B6B" stroke-opacity="0.6" stroke-width="0.25"/>
<line x1="359.875" y1="945" x2="359.875" y2="855" stroke="#6C6B6B" stroke-opacity="0.6" stroke-width="0.25"/>
<line x1="1079.88" y1="945" x2="1079.88" y2="855" stroke="#6C6B6B" stroke-opacity="0.6" stroke-width="0.25"/>
<line x1="719.875" y1="945" x2="719.875" y2="855" stroke="#6C6B6B" stroke-opacity="0.6" stroke-width="0.25"/>
<line x1="135" y1="959.875" x2="225" y2="959.875" stroke="#6C6B6B" stroke-opacity="0.6" stroke-width="0.25"/>
<line x1="135" y1="1079.88" x2="225" y2="1079.88" stroke="#6C6B6B" stroke-opacity="0.6" stroke-width="0.25"/>
<line x1="255" y1="959.875" x2="345" y2="959.875" stroke="#6C6B6B" stroke-opacity="0.6" stroke-width="0.25"/>
<line x1="255" y1="1079.88" x2="345" y2="1079.88" stroke="#6C6B6B" stroke-opacity="0.6" stroke-width="0.25"/>
<line x1="375" y1="959.875" x2="465" y2="959.875" stroke="#6C6B6B" stroke-opacity="0.6" stroke-width="0.25"/>
<line x1="375" y1="1079.88" x2="465" y2="1079.88" stroke="#6C6B6B" stroke-opacity="0.6" stroke-width="0.25"/>
<line x1="495" y1="959.875" x2="585" y2="959.875" stroke="#6C6B6B" stroke-opacity="0.6" stroke-width="0.25"/>
<line x1="495" y1="1079.88" x2="585" y2="1079.88" stroke="#6C6B6B" stroke-opacity="0.6" stroke-width="0.25"/>
<line x1="615" y1="959.875" x2="705" y2="959.875" stroke="#6C6B6B" stroke-opacity="0.6" stroke-width="0.25"/>
<line x1="615" y1="1079.88" x2="705" y2="1079.88" stroke="#6C6B6B" stroke-opacity="0.6" stroke-width="0.25"/>
<line x1="735" y1="959.875" x2="825" y2="959.875" stroke="#6C6B6B" stroke-opacity="0.6" stroke-width="0.25"/>
<line x1="735" y1="1079.88" x2="825" y2="1079.88" stroke="#6C6B6B" stroke-opacity="0.6" stroke-width="0.25"/>
<line x1="855" y1="959.875" x2="945" y2="959.875" stroke="#6C6B6B" stroke-opacity="0.6" stroke-width="0.25"/>
<line x1="855" y1="1079.88" x2="945" y2="1079.88" stroke="#6C6B6B" stroke-opacity="0.6" stroke-width="0.25"/>
<line x1="975" y1="959.875" x2="1065" y2="959.875" stroke="#6C6B6B" stroke-opacity="0.6" stroke-width="0.25"/>
<line x1="975" y1="1079.88" x2="1065" y2="1079.88" stroke="#6C6B6B" stroke-opacity="0.6" stroke-width="0.25"/>
<line x1="1095" y1="959.875" x2="1185" y2="959.875" stroke="#6C6B6B" stroke-opacity="0.6" stroke-width="0.25"/>
<line x1="1095" y1="1079.88" x2="1185" y2="1079.88" stroke="#6C6B6B" stroke-opacity="0.6" stroke-width="0.25"/>
<line x1="1215" y1="959.875" x2="1305" y2="959.875" stroke="#6C6B6B" stroke-opacity="0.6" stroke-width="0.25"/>
<line x1="1215" y1="1079.88" x2="1305" y2="1079.88" stroke="#6C6B6B" stroke-opacity="0.6" stroke-width="0.25"/>
<line x1="1335" y1="959.875" x2="1440" y2="959.875" stroke="#6C6B6B" stroke-opacity="0.6" stroke-width="0.25"/>
<line x1="1335" y1="1079.88" x2="1440" y2="1079.88" stroke="#6C6B6B" stroke-opacity="0.6" stroke-width="0.25"/>
</svg>
