<svg width="200" height="266" viewBox="0 0 200 266" fill="none" xmlns="http://www.w3.org/2000/svg">
<circle cx="198.014" cy="263.267" r="1.98623" transform="rotate(-180 198.014 263.267)" fill="#CFB53B"/>
<circle cx="198.014" cy="154.422" r="1.98623" transform="rotate(-180 198.014 154.422)" fill="#CFB53B"/>
<ellipse cx="198.014" cy="241.471" rx="1.98623" ry="2.11864" transform="rotate(-180 198.014 241.471)" fill="#CFB53B"/>
<ellipse cx="198.014" cy="132.627" rx="1.98623" ry="2.11864" transform="rotate(-180 198.014 132.627)" fill="#CFB53B"/>
<circle cx="198.014" cy="219.676" r="1.98623" transform="rotate(-180 198.014 219.676)" fill="#CFB53B"/>
<circle cx="198.014" cy="110.831" r="1.98623" transform="rotate(-180 198.014 110.831)" fill="#CFB53B"/>
<ellipse cx="198.014" cy="197.881" rx="1.98623" ry="2.11864" transform="rotate(-180 198.014 197.881)" fill="#CFB53B"/>
<ellipse cx="198.014" cy="89.0358" rx="1.98623" ry="2.11864" transform="rotate(-180 198.014 89.0358)" fill="#CFB53B"/>
<circle cx="198.014" cy="176.085" r="1.98623" transform="rotate(-180 198.014 176.085)" fill="#CFB53B"/>
<circle cx="198.014" cy="67.2402" r="1.98623" transform="rotate(-180 198.014 67.2402)" fill="#CFB53B"/>
<ellipse cx="176.218" cy="263.267" rx="2.11864" ry="1.98623" transform="rotate(-180 176.218 263.267)" fill="#CFB53B"/>
<ellipse cx="176.218" cy="154.422" rx="2.11864" ry="1.98623" transform="rotate(-180 176.218 154.422)" fill="#CFB53B"/>
<circle cx="176.218" cy="241.471" r="2.11864" transform="rotate(-180 176.218 241.471)" fill="#CFB53B"/>
<circle cx="176.218" cy="132.627" r="2.11864" transform="rotate(-180 176.218 132.627)" fill="#CFB53B"/>
<ellipse cx="176.218" cy="219.676" rx="2.11864" ry="1.98623" transform="rotate(-180 176.218 219.676)" fill="#CFB53B"/>
<ellipse cx="176.218" cy="110.831" rx="2.11864" ry="1.98623" transform="rotate(-180 176.218 110.831)" fill="#CFB53B"/>
<circle cx="176.218" cy="197.881" r="2.11864" transform="rotate(-180 176.218 197.881)" fill="#CFB53B"/>
<circle cx="176.218" cy="89.0358" r="2.11864" transform="rotate(-180 176.218 89.0358)" fill="#CFB53B"/>
<ellipse cx="176.218" cy="176.085" rx="2.11864" ry="1.98623" transform="rotate(-180 176.218 176.085)" fill="#CFB53B"/>
<ellipse cx="176.218" cy="67.2402" rx="2.11864" ry="1.98623" transform="rotate(-180 176.218 67.2402)" fill="#CFB53B"/>
<circle cx="198.014" cy="45.5771" r="1.98623" transform="rotate(-180 198.014 45.5771)" fill="#CFB53B"/>
<ellipse cx="198.014" cy="23.7818" rx="1.98623" ry="2.11864" transform="rotate(-180 198.014 23.7818)" fill="#CFB53B"/>
<circle cx="198.014" cy="1.9863" r="1.98623" transform="rotate(-180 198.014 1.9863)" fill="#CFB53B"/>
<ellipse cx="176.218" cy="45.5771" rx="2.11864" ry="1.98623" transform="rotate(-180 176.218 45.5771)" fill="#CFB53B"/>
<circle cx="176.218" cy="23.7818" r="2.11864" transform="rotate(-180 176.218 23.7818)" fill="#CFB53B"/>
<ellipse cx="176.218" cy="1.9863" rx="2.11864" ry="1.98623" transform="rotate(-180 176.218 1.9863)" fill="#CFB53B"/>
<circle cx="89.1681" cy="263.267" r="1.98623" transform="rotate(-180 89.1681 263.267)" fill="#CFB53B"/>
<circle cx="89.1681" cy="154.422" r="1.98623" transform="rotate(-180 89.1681 154.422)" fill="#CFB53B"/>
<ellipse cx="89.1681" cy="241.471" rx="1.98623" ry="2.11864" transform="rotate(-180 89.1681 241.471)" fill="#CFB53B"/>
<ellipse cx="89.1681" cy="132.627" rx="1.98623" ry="2.11864" transform="rotate(-180 89.1681 132.627)" fill="#CFB53B"/>
<circle cx="89.1681" cy="219.676" r="1.98623" transform="rotate(-180 89.1681 219.676)" fill="#CFB53B"/>
<circle cx="89.1681" cy="110.831" r="1.98623" transform="rotate(-180 89.1681 110.831)" fill="#CFB53B"/>
<ellipse cx="89.1681" cy="197.881" rx="1.98623" ry="2.11864" transform="rotate(-180 89.1681 197.881)" fill="#CFB53B"/>
<ellipse cx="89.1681" cy="89.0357" rx="1.98623" ry="2.11864" transform="rotate(-180 89.1681 89.0357)" fill="#CFB53B"/>
<circle cx="89.1681" cy="176.085" r="1.98623" transform="rotate(-180 89.1681 176.085)" fill="#CFB53B"/>
<circle cx="89.1681" cy="67.2402" r="1.98623" transform="rotate(-180 89.1681 67.2402)" fill="#CFB53B"/>
<ellipse cx="67.3726" cy="263.267" rx="2.11864" ry="1.98623" transform="rotate(-180 67.3726 263.267)" fill="#CFB53B"/>
<ellipse cx="67.3726" cy="154.422" rx="2.11864" ry="1.98623" transform="rotate(-180 67.3726 154.422)" fill="#CFB53B"/>
<circle cx="67.3726" cy="241.471" r="2.11864" transform="rotate(-180 67.3726 241.471)" fill="#CFB53B"/>
<circle cx="67.3726" cy="132.627" r="2.11864" transform="rotate(-180 67.3726 132.627)" fill="#CFB53B"/>
<ellipse cx="67.3726" cy="219.676" rx="2.11864" ry="1.98623" transform="rotate(-180 67.3726 219.676)" fill="#CFB53B"/>
<ellipse cx="67.3726" cy="110.831" rx="2.11864" ry="1.98623" transform="rotate(-180 67.3726 110.831)" fill="#CFB53B"/>
<circle cx="67.3726" cy="197.881" r="2.11864" transform="rotate(-180 67.3726 197.881)" fill="#CFB53B"/>
<circle cx="67.3726" cy="89.0357" r="2.11864" transform="rotate(-180 67.3726 89.0357)" fill="#CFB53B"/>
<ellipse cx="67.3726" cy="176.085" rx="2.11864" ry="1.98623" transform="rotate(-180 67.3726 176.085)" fill="#CFB53B"/>
<ellipse cx="67.3726" cy="67.2402" rx="2.11864" ry="1.98623" transform="rotate(-180 67.3726 67.2402)" fill="#CFB53B"/>
<circle cx="45.5772" cy="263.267" r="1.98623" transform="rotate(-180 45.5772 263.267)" fill="#CFB53B"/>
<circle cx="45.5772" cy="154.422" r="1.98623" transform="rotate(-180 45.5772 154.422)" fill="#CFB53B"/>
<ellipse cx="45.5772" cy="241.471" rx="1.98623" ry="2.11864" transform="rotate(-180 45.5772 241.471)" fill="#CFB53B"/>
<ellipse cx="45.5772" cy="132.627" rx="1.98623" ry="2.11864" transform="rotate(-180 45.5772 132.627)" fill="#CFB53B"/>
<circle cx="45.5772" cy="219.676" r="1.98623" transform="rotate(-180 45.5772 219.676)" fill="#CFB53B"/>
<circle cx="45.5772" cy="110.831" r="1.98623" transform="rotate(-180 45.5772 110.831)" fill="#CFB53B"/>
<ellipse cx="45.5772" cy="197.881" rx="1.98623" ry="2.11864" transform="rotate(-180 45.5772 197.881)" fill="#CFB53B"/>
<ellipse cx="45.5772" cy="89.0357" rx="1.98623" ry="2.11864" transform="rotate(-180 45.5772 89.0357)" fill="#CFB53B"/>
<circle cx="45.5772" cy="176.085" r="1.98623" transform="rotate(-180 45.5772 176.085)" fill="#CFB53B"/>
<circle cx="45.5772" cy="67.2402" r="1.98623" transform="rotate(-180 45.5772 67.2402)" fill="#CFB53B"/>
<ellipse cx="23.7808" cy="263.267" rx="2.11864" ry="1.98623" transform="rotate(-180 23.7808 263.267)" fill="#CFB53B"/>
<ellipse cx="23.7808" cy="154.422" rx="2.11864" ry="1.98623" transform="rotate(-180 23.7808 154.422)" fill="#CFB53B"/>
<circle cx="23.7808" cy="241.471" r="2.11864" transform="rotate(-180 23.7808 241.471)" fill="#CFB53B"/>
<circle cx="23.7808" cy="132.627" r="2.11864" transform="rotate(-180 23.7808 132.627)" fill="#CFB53B"/>
<ellipse cx="23.7808" cy="219.676" rx="2.11864" ry="1.98623" transform="rotate(-180 23.7808 219.676)" fill="#CFB53B"/>
<ellipse cx="23.7808" cy="110.831" rx="2.11864" ry="1.98623" transform="rotate(-180 23.7808 110.831)" fill="#CFB53B"/>
<circle cx="23.7808" cy="197.881" r="2.11864" transform="rotate(-180 23.7808 197.881)" fill="#CFB53B"/>
<circle cx="23.7808" cy="89.0357" r="2.11864" transform="rotate(-180 23.7808 89.0357)" fill="#CFB53B"/>
<ellipse cx="23.7808" cy="176.085" rx="2.11864" ry="1.98623" transform="rotate(-180 23.7808 176.085)" fill="#CFB53B"/>
<ellipse cx="23.7808" cy="67.2402" rx="2.11864" ry="1.98623" transform="rotate(-180 23.7808 67.2402)" fill="#CFB53B"/>
<circle cx="1.98643" cy="263.267" r="1.98623" transform="rotate(-180 1.98643 263.267)" fill="#CFB53B"/>
<circle cx="1.98643" cy="154.422" r="1.98623" transform="rotate(-180 1.98643 154.422)" fill="#CFB53B"/>
<ellipse cx="1.98643" cy="241.471" rx="1.98623" ry="2.11864" transform="rotate(-180 1.98643 241.471)" fill="#CFB53B"/>
<ellipse cx="1.98643" cy="132.627" rx="1.98623" ry="2.11864" transform="rotate(-180 1.98643 132.627)" fill="#CFB53B"/>
<circle cx="1.98643" cy="219.676" r="1.98623" transform="rotate(-180 1.98643 219.676)" fill="#CFB53B"/>
<circle cx="1.98643" cy="110.831" r="1.98623" transform="rotate(-180 1.98643 110.831)" fill="#CFB53B"/>
<ellipse cx="1.98643" cy="197.881" rx="1.98623" ry="2.11864" transform="rotate(-180 1.98643 197.881)" fill="#CFB53B"/>
<ellipse cx="1.98643" cy="89.0357" rx="1.98623" ry="2.11864" transform="rotate(-180 1.98643 89.0357)" fill="#CFB53B"/>
<circle cx="1.98643" cy="176.085" r="1.98623" transform="rotate(-180 1.98643 176.085)" fill="#CFB53B"/>
<circle cx="1.98643" cy="67.2402" r="1.98623" transform="rotate(-180 1.98643 67.2402)" fill="#CFB53B"/>
<circle cx="154.422" cy="263.267" r="1.98623" transform="rotate(-180 154.422 263.267)" fill="#CFB53B"/>
<circle cx="154.422" cy="154.422" r="1.98623" transform="rotate(-180 154.422 154.422)" fill="#CFB53B"/>
<ellipse cx="154.422" cy="241.471" rx="1.98623" ry="2.11864" transform="rotate(-180 154.422 241.471)" fill="#CFB53B"/>
<ellipse cx="154.422" cy="132.627" rx="1.98623" ry="2.11864" transform="rotate(-180 154.422 132.627)" fill="#CFB53B"/>
<circle cx="154.422" cy="219.676" r="1.98623" transform="rotate(-180 154.422 219.676)" fill="#CFB53B"/>
<circle cx="154.422" cy="110.831" r="1.98623" transform="rotate(-180 154.422 110.831)" fill="#CFB53B"/>
<ellipse cx="154.422" cy="197.881" rx="1.98623" ry="2.11864" transform="rotate(-180 154.422 197.881)" fill="#CFB53B"/>
<ellipse cx="154.422" cy="89.0358" rx="1.98623" ry="2.11864" transform="rotate(-180 154.422 89.0358)" fill="#CFB53B"/>
<circle cx="154.422" cy="176.085" r="1.98623" transform="rotate(-180 154.422 176.085)" fill="#CFB53B"/>
<circle cx="154.422" cy="67.2402" r="1.98623" transform="rotate(-180 154.422 67.2402)" fill="#CFB53B"/>
<ellipse cx="132.626" cy="263.267" rx="2.11864" ry="1.98623" transform="rotate(-180 132.626 263.267)" fill="#CFB53B"/>
<ellipse cx="132.626" cy="154.422" rx="2.11864" ry="1.98623" transform="rotate(-180 132.626 154.422)" fill="#CFB53B"/>
<circle cx="132.626" cy="241.471" r="2.11864" transform="rotate(-180 132.626 241.471)" fill="#CFB53B"/>
<circle cx="132.626" cy="132.627" r="2.11864" transform="rotate(-180 132.626 132.627)" fill="#CFB53B"/>
<ellipse cx="132.626" cy="219.676" rx="2.11864" ry="1.98623" transform="rotate(-180 132.626 219.676)" fill="#CFB53B"/>
<ellipse cx="132.626" cy="110.831" rx="2.11864" ry="1.98623" transform="rotate(-180 132.626 110.831)" fill="#CFB53B"/>
<circle cx="132.626" cy="197.881" r="2.11864" transform="rotate(-180 132.626 197.881)" fill="#CFB53B"/>
<circle cx="132.626" cy="89.0358" r="2.11864" transform="rotate(-180 132.626 89.0358)" fill="#CFB53B"/>
<ellipse cx="132.626" cy="176.085" rx="2.11864" ry="1.98623" transform="rotate(-180 132.626 176.085)" fill="#CFB53B"/>
<ellipse cx="132.626" cy="67.2402" rx="2.11864" ry="1.98623" transform="rotate(-180 132.626 67.2402)" fill="#CFB53B"/>
<circle cx="110.831" cy="263.267" r="1.98623" transform="rotate(-180 110.831 263.267)" fill="#CFB53B"/>
<circle cx="110.831" cy="154.422" r="1.98623" transform="rotate(-180 110.831 154.422)" fill="#CFB53B"/>
<ellipse cx="110.831" cy="241.471" rx="1.98623" ry="2.11864" transform="rotate(-180 110.831 241.471)" fill="#CFB53B"/>
<ellipse cx="110.831" cy="132.627" rx="1.98623" ry="2.11864" transform="rotate(-180 110.831 132.627)" fill="#CFB53B"/>
<circle cx="110.831" cy="219.676" r="1.98623" transform="rotate(-180 110.831 219.676)" fill="#CFB53B"/>
<circle cx="89.1681" cy="45.577" r="1.98623" transform="rotate(-180 89.1681 45.577)" fill="#CFB53B"/>
<ellipse cx="89.1681" cy="23.7817" rx="1.98623" ry="2.11864" transform="rotate(-180 89.1681 23.7817)" fill="#CFB53B"/>
<circle cx="89.1681" cy="1.98623" r="1.98623" transform="rotate(-180 89.1681 1.98623)" fill="#CFB53B"/>
<ellipse cx="67.3726" cy="45.577" rx="2.11864" ry="1.98623" transform="rotate(-180 67.3726 45.577)" fill="#CFB53B"/>
<circle cx="67.3726" cy="23.7817" r="2.11864" transform="rotate(-180 67.3726 23.7817)" fill="#CFB53B"/>
<ellipse cx="67.3726" cy="1.98623" rx="2.11864" ry="1.98623" transform="rotate(-180 67.3726 1.98623)" fill="#CFB53B"/>
<circle cx="45.5772" cy="45.577" r="1.98623" transform="rotate(-180 45.5772 45.577)" fill="#CFB53B"/>
<ellipse cx="45.5772" cy="23.7817" rx="1.98623" ry="2.11864" transform="rotate(-180 45.5772 23.7817)" fill="#CFB53B"/>
<circle cx="45.5772" cy="1.98623" r="1.98623" transform="rotate(-180 45.5772 1.98623)" fill="#CFB53B"/>
<ellipse cx="23.7808" cy="45.577" rx="2.11864" ry="1.98623" transform="rotate(-180 23.7808 45.577)" fill="#CFB53B"/>
<circle cx="23.7808" cy="23.7817" r="2.11864" transform="rotate(-180 23.7808 23.7817)" fill="#CFB53B"/>
<ellipse cx="23.7808" cy="1.98623" rx="2.11864" ry="1.98623" transform="rotate(-180 23.7808 1.98623)" fill="#CFB53B"/>
<circle cx="1.98643" cy="45.577" r="1.98623" transform="rotate(-180 1.98643 45.577)" fill="#CFB53B"/>
<ellipse cx="1.98643" cy="23.7817" rx="1.98623" ry="2.11864" transform="rotate(-180 1.98643 23.7817)" fill="#CFB53B"/>
<circle cx="1.98643" cy="1.98623" r="1.98623" transform="rotate(-180 1.98643 1.98623)" fill="#CFB53B"/>
<circle cx="154.422" cy="45.5771" r="1.98623" transform="rotate(-180 154.422 45.5771)" fill="#CFB53B"/>
<ellipse cx="154.422" cy="23.7818" rx="1.98623" ry="2.11864" transform="rotate(-180 154.422 23.7818)" fill="#CFB53B"/>
<circle cx="154.422" cy="1.9863" r="1.98623" transform="rotate(-180 154.422 1.9863)" fill="#CFB53B"/>
<ellipse cx="132.626" cy="45.5771" rx="2.11864" ry="1.98623" transform="rotate(-180 132.626 45.5771)" fill="#CFB53B"/>
<circle cx="132.626" cy="23.7818" r="2.11864" transform="rotate(-180 132.626 23.7818)" fill="#CFB53B"/>
<ellipse cx="132.626" cy="1.9863" rx="2.11864" ry="1.98623" transform="rotate(-180 132.626 1.9863)" fill="#CFB53B"/>
<circle cx="110.831" cy="45.5771" r="1.98623" transform="rotate(-180 110.831 45.5771)" fill="#CFB53B"/>
<ellipse cx="110.831" cy="23.7818" rx="1.98623" ry="2.11864" transform="rotate(-180 110.831 23.7818)" fill="#CFB53B"/>
<circle cx="110.831" cy="1.9863" r="1.98623" transform="rotate(-180 110.831 1.9863)" fill="#CFB53B"/>
<circle cx="110.831" cy="110.831" r="1.98623" transform="rotate(-180 110.831 110.831)" fill="#CFB53B"/>
<ellipse cx="110.831" cy="197.881" rx="1.98623" ry="2.11864" transform="rotate(-180 110.831 197.881)" fill="#CFB53B"/>
<ellipse cx="110.831" cy="89.0358" rx="1.98623" ry="2.11864" transform="rotate(-180 110.831 89.0358)" fill="#CFB53B"/>
<circle cx="110.831" cy="176.085" r="1.98623" transform="rotate(-180 110.831 176.085)" fill="#CFB53B"/>
<circle cx="110.831" cy="67.2402" r="1.98623" transform="rotate(-180 110.831 67.2402)" fill="#CFB53B"/>
</svg>
