<svg width="20" height="16" viewBox="0 0 20 16" fill="none" xmlns="http://www.w3.org/2000/svg">
<path d="M19.375 0.5H0.625C0.25 0.5 0 0.75 0 1.125V14.875C0 15.25 0.25 15.5 0.625 15.5H19.375C19.75 15.5 20 15.25 20 14.875V1.125C20 0.75 19.75 0.5 19.375 0.5ZM17.875 3.5L10.375 8.5C10.25 8.5625 10.125 8.625 10 8.625C9.875 8.625 9.75 8.5625 9.625 8.5L2.125 3.5C1.875 3.3125 1.8125 2.9375 2 2.625C2.1875 2.375 2.5625 2.3125 2.875 2.5L10 7.25L17.125 2.5C17.4375 2.3125 17.8125 2.375 18 2.6875C18.1875 2.9375 18.125 3.3125 17.875 3.5Z" fill="#060912" fill-opacity="0.5"/>
</svg>
