<svg width="20" height="20" viewBox="0 0 20 20" fill="none" xmlns="http://www.w3.org/2000/svg">
<path d="M19.375 2.5H0.625C0.25 2.5 0 2.75 0 3.125V16.875C0 17.25 0.25 17.5 0.625 17.5H19.375C19.75 17.5 20 17.25 20 16.875V3.125C20 2.75 19.75 2.5 19.375 2.5ZM17.875 5.5L10.375 10.5C10.25 10.5625 10.125 10.625 10 10.625C9.875 10.625 9.75 10.5625 9.625 10.5L2.125 5.5C1.875 5.3125 1.8125 4.9375 2 4.625C2.1875 4.375 2.5625 4.3125 2.875 4.5L10 9.25L17.125 4.5C17.4375 4.3125 17.8125 4.375 18 4.6875C18.1875 4.9375 18.125 5.3125 17.875 5.5Z" fill="#C2C2C2"/>
</svg>
