<svg width="40" height="40" viewBox="0 0 40 40" fill="none" xmlns="http://www.w3.org/2000/svg">
<g clip-path="url(#clip0)">
<path d="M34.1434 5.85713C31.3464 3.06 27.7827 1.15511 23.9031 0.38335C20.0234 -0.388414 16.002 0.00760967 12.3475 1.52134C8.69292 3.03507 5.5693 5.59852 3.37164 8.88752C1.17397 12.1765 0.000976563 16.0433 0.000976562 19.999C0.000976563 23.9547 1.17397 27.8215 3.37164 31.1105C5.5693 34.3995 8.69292 36.9629 12.3475 38.4767C16.002 39.9904 20.0234 40.3864 23.9031 39.6147C27.7827 38.8429 31.3464 36.938 34.1434 34.1409C37.8938 30.3901 40.0007 25.3032 40.0007 19.999C40.0007 14.6949 37.8938 9.60791 34.1434 5.85713ZM27.9546 26.1871C28.074 26.3024 28.1692 26.4404 28.2348 26.5929C28.3003 26.7454 28.3347 26.9094 28.3362 27.0754C28.3376 27.2414 28.306 27.406 28.2432 27.5596C28.1803 27.7132 28.0875 27.8528 27.9701 27.9701C27.8528 28.0875 27.7132 28.1803 27.5596 28.2432C27.406 28.306 27.2414 28.3376 27.0754 28.3362C26.9094 28.3347 26.7454 28.3003 26.5929 28.2348C26.4404 28.1692 26.3024 28.074 26.1871 27.9546L19.9996 21.7671L13.8128 27.9546C13.577 28.1823 13.2612 28.3083 12.9335 28.3055C12.6058 28.3026 12.2922 28.1712 12.0605 27.9394C11.8287 27.7076 11.6973 27.3941 11.6944 27.0664C11.6916 26.7386 11.8176 26.4229 12.0452 26.1871L18.2328 19.9996L12.0452 13.8121C11.8208 13.5758 11.6975 13.2611 11.7017 12.9351C11.706 12.6091 11.8374 12.2977 12.0679 12.0673C12.2984 11.8368 12.6099 11.7055 12.9358 11.7014C13.2618 11.6973 13.5765 11.8207 13.8128 12.0453L20.0003 18.2309L26.1871 12.0446C26.4229 11.8169 26.7386 11.6909 27.0664 11.6938C27.3941 11.6966 27.7076 11.8281 27.9394 12.0599C28.1712 12.2916 28.3026 12.6051 28.3055 12.9329C28.3083 13.2606 28.1823 13.5764 27.9546 13.8121L21.7671 19.9984L27.9546 26.1871Z" fill="#FF370F"/>
</g>
<defs>
<clipPath id="clip0">
<rect width="40" height="40" fill="white"/>
</clipPath>
</defs>
</svg>
