<svg width="20" height="20" viewBox="0 0 20 20" fill="none" xmlns="http://www.w3.org/2000/svg">
<g clip-path="url(#clip0)">
<path d="M18.125 0H1.875C1.37818 0.00148381 0.902124 0.199504 0.550814 0.550814C0.199504 0.902124 0.00148381 1.37818 0 1.875L0 18.125C0.00148381 18.6218 0.199504 19.0979 0.550814 19.4492C0.902124 19.8005 1.37818 19.9985 1.875 20H10.625V11.875H8.4375V8.75H10.625V7.1875C10.6756 5.43563 11.1287 3.87687 14.0997 3.75H16.5625V6.8475H14.4806C14.3481 6.83956 14.2154 6.8585 14.0904 6.90318C13.9654 6.94787 13.8507 7.01737 13.7532 7.10752C13.6558 7.19767 13.5776 7.30659 13.5233 7.42774C13.4691 7.5489 13.4399 7.67977 13.4375 7.8125V8.75H16.5625L16.0294 11.875H13.4375V20H18.125C18.6218 19.9985 19.0979 19.8005 19.4492 19.4492C19.8005 19.0979 19.9985 18.6218 20 18.125V1.875C19.9985 1.37818 19.8005 0.902124 19.4492 0.550814C19.0979 0.199504 18.6218 0.00148381 18.125 0V0Z" fill="#C2C2C2"/>
</g>
<defs>
<clipPath id="clip0">
<rect width="20" height="20" fill="white"/>
</clipPath>
</defs>
</svg>
