<svg width="41" height="41" viewBox="0 0 41 41" fill="none" xmlns="http://www.w3.org/2000/svg">
<g clip-path="url(#clip0)">
<path d="M29.945 40.5003C29.665 40.5003 29.3783 40.4653 29.095 40.3903L3.3233 33.4886C1.55663 33.002 0.5033 31.172 0.966633 29.4053L4.2183 17.2853C4.3383 16.8403 4.79497 16.582 5.2383 16.6953C5.6833 16.8136 5.94663 17.272 5.8283 17.7153L2.5783 29.832C2.34663 30.7153 2.87663 31.6353 3.76163 31.8803L29.5233 38.7786C30.4083 39.012 31.3216 38.4853 31.5516 37.6053L32.8533 32.782C32.9733 32.337 33.43 32.072 33.875 32.1937C34.32 32.3137 34.5816 32.772 34.4633 33.2153L33.1633 38.032C32.7716 39.5153 31.4216 40.5003 29.945 40.5003Z" fill="#525252"/>
<path d="M37.5234 30.5002H10.8568C9.01844 30.5002 7.52344 29.0052 7.52344 27.1668V7.16683C7.52344 5.3285 9.01844 3.8335 10.8568 3.8335H37.5234C39.3618 3.8335 40.8568 5.3285 40.8568 7.16683V27.1668C40.8568 29.0052 39.3618 30.5002 37.5234 30.5002ZM10.8568 5.50016C9.93844 5.50016 9.1901 6.2485 9.1901 7.16683V27.1668C9.1901 28.0852 9.93844 28.8335 10.8568 28.8335H37.5234C38.4418 28.8335 39.1901 28.0852 39.1901 27.1668V7.16683C39.1901 6.2485 38.4418 5.50016 37.5234 5.50016H10.8568Z" fill="#525252"/>
<path d="M15.8568 15.5002C14.0184 15.5002 12.5234 14.0052 12.5234 12.1668C12.5234 10.3285 14.0184 8.8335 15.8568 8.8335C17.6951 8.8335 19.1901 10.3285 19.1901 12.1668C19.1901 14.0052 17.6951 15.5002 15.8568 15.5002ZM15.8568 10.5002C14.9384 10.5002 14.1901 11.2485 14.1901 12.1668C14.1901 13.0852 14.9384 13.8335 15.8568 13.8335C16.7751 13.8335 17.5234 13.0852 17.5234 12.1668C17.5234 11.2485 16.7751 10.5002 15.8568 10.5002Z" fill="#525252"/>
<path d="M8.4734 28.7163C8.26006 28.7163 8.04673 28.6347 7.8834 28.473C7.5584 28.148 7.5584 27.6197 7.8834 27.2947L15.7551 19.423C16.6984 18.4797 18.3467 18.4797 19.2901 19.423L21.6334 21.7663L28.12 13.983C28.5917 13.418 29.285 13.0897 30.0234 13.083H30.0417C30.7717 13.083 31.4634 13.3997 31.94 13.9547L40.6567 24.1247C40.9567 24.473 40.9167 24.9997 40.5667 25.2997C40.2184 25.5997 39.6934 25.5613 39.3917 25.2097L30.675 15.0397C30.5134 14.853 30.29 14.7497 30.0417 14.7497C29.8684 14.7347 29.5634 14.8547 29.4017 15.0497L22.3301 23.5347C22.1801 23.7147 21.9617 23.823 21.7267 23.833C21.4901 23.8497 21.2651 23.7563 21.1001 23.5897L18.1117 20.6013C17.7967 20.288 17.2484 20.288 16.9334 20.6013L9.06173 28.473C8.90006 28.6347 8.68673 28.7163 8.4734 28.7163Z" fill="#525252"/>
</g>
<defs>
<clipPath id="clip0">
<rect width="40" height="40" fill="white" transform="translate(0.856934 0.5)"/>
</clipPath>
</defs>
</svg>
