<svg width="20" height="20" viewBox="0 0 20 20" fill="none" xmlns="http://www.w3.org/2000/svg">
<path d="M0.359375 6.78125H4.42188V19.0625H0.359375V6.78125ZM14.9062 6.375C13.125 6.375 12.0625 7.03125 10.9375 8.46875V6.78125H6.875V19.0625H10.9688V12.4063C10.9688 11 11.6875 9.625 13.3125 9.625C14.9375 9.625 15.9062 11 15.9062 12.375V19.0625H20V12.0938C20 7.25 16.7188 6.375 14.9062 6.375ZM2.40625 0.8125C1.0625 0.8125 0 1.78125 0 2.96875C0 4.15625 1.0625 5.125 2.40625 5.125C3.75 5.125 4.8125 4.15625 4.8125 2.96875C4.8125 1.78125 3.75 0.8125 2.40625 0.8125Z" fill="#C2C2C2"/>
</svg>
