<svg width="19" height="25" viewBox="0 0 19 25" fill="none" xmlns="http://www.w3.org/2000/svg">
<path d="M4.81217 9.89583V6.24999C4.81217 3.66562 6.9153 1.56249 9.49968 1.56249C12.0841 1.56249 14.1872 3.66562 14.1872 6.24999V9.89583H15.2288V6.24999C15.2288 3.09114 12.6585 0.520828 9.49968 0.520828C6.34082 0.520828 3.77051 3.09114 3.77051 6.24999V9.89583H4.81217Z" fill="#060912" fill-opacity="0.5"/>
<path d="M17.3122 10.9375H1.68717C1.11165 10.9375 0.645508 11.4036 0.645508 11.9792V23.4375C0.645508 24.013 1.11165 24.4792 1.68717 24.4792H17.3122C17.8877 24.4792 18.3538 24.013 18.3538 23.4375V11.9792C18.3538 11.4036 17.8877 10.9375 17.3122 10.9375ZM10.0205 19.2182V21.3542H8.97884V19.2182C7.7903 18.9771 6.89551 17.9266 6.89551 16.6667C6.89551 15.2286 8.06166 14.0625 9.49968 14.0625C10.9377 14.0625 12.1038 15.2286 12.1038 16.6667C12.1038 17.9266 11.2091 18.9771 10.0205 19.2182Z" fill="#060912" fill-opacity="0.5"/>
</svg>
