<svg width="84" height="64" viewBox="0 0 84 64" fill="none" xmlns="http://www.w3.org/2000/svg">
<path d="M53.3516 63.125C52.5703 62.8646 51.9518 62.3438 51.4961 61.5625C50.0638 59.0234 49.3477 57.1354 49.3477 55.8984L49.543 55.1172C50.194 54.6615 51.6914 53.6523 54.0352 52.0898C58.0716 49.4857 60.8711 47.0768 62.4336 44.8633C64.6471 41.8685 65.7539 38.9388 65.7539 36.0742C65.7539 31.9727 63.2148 28.8151 58.1367 26.6016C54.7513 25.1042 52.375 23.5417 51.0078 21.9141C49.1198 19.7005 48.1758 17.2266 48.1758 14.4922C48.1758 10.7161 49.6081 7.39583 52.4727 4.53125C55.3372 1.73177 58.7227 0.332031 62.6289 0.332031C67.9674 0.332031 72.8177 2.74089 77.1797 7.55859C81.4766 12.3763 83.625 18.4961 83.625 25.918C83.625 35.0977 80.5651 43.3008 74.4453 50.5273C68.3255 57.7539 61.2943 61.9531 53.3516 63.125ZM7.16016 63.0273C5.85807 62.832 4.65365 62.0508 3.54688 60.6836C2.04948 58.7956 1.30078 57.2331 1.30078 55.9961L1.69141 54.6289C8.65755 50.2669 13.1497 46.7188 15.168 43.9844C17.1862 41.3151 18.1953 38.3529 18.1953 35.0977C18.1953 33.1445 17.8047 31.6797 17.0234 30.7031C15.9167 29.3359 13.3776 27.6432 9.40625 25.625C3.61198 22.6302 0.714844 18.5612 0.714844 13.418C0.714844 10.0326 2.17969 6.97266 5.10937 4.23828C8.03906 1.50391 11.6198 0.136719 15.8516 0.136719C21.0599 0.136719 25.7799 2.44792 30.0117 7.07031C34.1784 11.7578 36.2617 17.5195 36.2617 24.3555C36.2617 29.9544 35.0573 35.4557 32.6484 40.8594C30.2396 46.263 26.724 50.8203 22.1016 54.5313C17.4792 58.3073 12.4987 61.1393 7.16016 63.0273Z" fill="#6C6B6B"/>
</svg>
