<svg width="20" height="20" viewBox="0 0 20 20" fill="none" xmlns="http://www.w3.org/2000/svg">
<path d="M1.875 8.125C1.875 11.5698 4.68018 14.375 8.125 14.375C9.62158 14.375 10.9937 13.8501 12.0703 12.9688L17.0508 17.9492L17.9492 17.0508L12.9688 12.0703C13.8501 10.9937 14.375 9.62158 14.375 8.125C14.375 4.68018 11.5698 1.875 8.125 1.875C4.68018 1.875 1.875 4.68018 1.875 8.125ZM3.125 8.125C3.125 5.35645 5.35645 3.125 8.125 3.125C10.8936 3.125 13.125 5.35645 13.125 8.125C13.125 10.8936 10.8936 13.125 8.125 13.125C5.35645 13.125 3.125 10.8936 3.125 8.125Z" fill="#525252" fill-opacity="0.5"/>
</svg>
