<svg width="40" height="40" viewBox="0 0 40 40" fill="none" xmlns="http://www.w3.org/2000/svg">
<g clip-path="url(#clip0)">
<path d="M34.1404 5.85713C31.3434 3.06 27.7798 1.15511 23.9001 0.38335C20.0205 -0.388414 15.9991 0.00760967 12.3445 1.52134C8.68998 3.03507 5.56637 5.59852 3.36871 8.88752C1.17104 12.1765 -0.00195312 16.0433 -0.00195312 19.999C-0.00195312 23.9547 1.17104 27.8215 3.36871 31.1105C5.56637 34.3995 8.68998 36.9629 12.3445 38.4767C15.9991 39.9904 20.0205 40.3864 23.9001 39.6147C27.7798 38.8429 31.3434 36.938 34.1404 34.1409C37.891 30.3902 39.998 25.3032 39.998 19.999C39.998 14.6948 37.891 9.60783 34.1404 5.85713ZM29.6054 16.5346L18.7429 27.3971L12.2386 20.8928C12.1192 20.7774 12.024 20.6395 11.9584 20.487C11.8929 20.3345 11.8584 20.1705 11.857 20.0045C11.8556 19.8385 11.8872 19.6739 11.95 19.5203C12.0129 19.3667 12.1057 19.2271 12.2231 19.1098C12.3404 18.9924 12.48 18.8996 12.6336 18.8367C12.7872 18.7739 12.9518 18.7422 13.1178 18.7437C13.2838 18.7451 13.4478 18.7796 13.6003 18.8451C13.7528 18.9106 13.8908 19.0059 14.0061 19.1253L18.7423 23.8615L27.8379 14.7678C28.0742 14.5432 28.3889 14.4198 28.7148 14.4239C29.0408 14.428 29.3523 14.5593 29.5828 14.7898C29.8133 15.0202 29.9447 15.3316 29.949 15.6576C29.9532 15.9836 29.8299 16.2983 29.6054 16.5346Z" fill="#0DAA2F"/>
</g>
<defs>
<clipPath id="clip0">
<rect width="40" height="40" fill="white"/>
</clipPath>
</defs>
</svg>
