<svg width="20" height="20" viewBox="0 0 20 20" fill="none" xmlns="http://www.w3.org/2000/svg">
<path d="M20 4.12305C19.281 4.46618 18.5102 4.68793 17.7188 4.7793C18.5233 4.23848 19.1273 3.44775 19.4375 2.5293C18.8438 2.9043 17.5312 3.43555 16.875 3.43555C16.0766 2.64309 14.9999 2.19444 13.875 2.18555C13.3331 2.18501 12.7965 2.29135 12.2958 2.49846C11.7951 2.70557 11.3401 3.00939 10.957 3.39254C10.5738 3.77569 10.27 4.23064 10.0629 4.73135C9.8558 5.23206 9.74947 5.7687 9.75 6.31055C9.74863 6.61512 9.78006 6.91896 9.84375 7.2168C6.75 7.12305 3.125 5.5918 1.09375 2.93555C0.583772 3.83388 0.429236 4.8908 0.660669 5.89754C0.892102 6.90427 1.49267 7.78761 2.34375 8.37305C1.875 8.43555 0.96875 8.3418 0.5625 7.93555C0.53125 9.37305 1.21875 11.2793 3.75 11.9668C3.25 12.2168 2.40625 12.1543 2.03125 12.0918C2.15625 13.3106 3.875 14.9043 5.71875 14.9043C5.0625 15.6543 2.8125 17.0606 0 16.6231C1.94934 17.8088 4.18712 18.4358 6.46875 18.4356C8.03272 18.4459 9.58238 18.1372 11.0229 17.5282C12.4635 16.9192 13.7647 16.0227 14.847 14.8937C15.9293 13.7646 16.7699 12.4266 17.3174 10.9616C17.8649 9.49651 18.1078 7.93518 18.0312 6.37305V6.2168C18.8226 5.65945 19.4924 4.94712 20 4.12305Z" fill="#C2C2C2"/>
</svg>
