<svg width="40" height="41" viewBox="0 0 40 41" fill="none" xmlns="http://www.w3.org/2000/svg">
<g clip-path="url(#clip0)">
<path d="M20.0777 21.5785C20.5098 21.5785 20.8605 21.2278 20.8605 20.7957C20.8605 20.3637 20.5098 20.0129 20.0777 20.0129C19.6456 20.0129 19.2949 20.3637 19.2949 20.7957C19.2949 21.2278 19.6456 21.5785 20.0777 21.5785Z" fill="#F9B233"/>
<path d="M20.8605 6.70565V1.53931C20.8605 1.10695 20.5101 0.756531 20.0777 0.756531C19.6453 0.756531 19.2949 1.10695 19.2949 1.53931V6.70565C19.2949 7.13801 19.6453 7.48843 20.0777 7.48843C20.5101 7.48843 20.8605 7.13801 20.8605 6.70565Z" fill="#F9B233"/>
<path d="M10.6847 10.0049C11.0593 9.78905 11.1874 9.31021 10.9712 8.93564L8.6229 4.86855C8.40671 4.49398 7.92818 4.36586 7.55361 4.58204C7.17934 4.79822 7.05091 5.27676 7.2671 5.65133L9.61544 9.71842C9.83254 10.0948 10.3123 10.2202 10.6847 10.0049Z" fill="#F9B233"/>
<path d="M30.5409 9.71842L32.8892 5.65133C33.1054 5.27676 32.9772 4.79822 32.6027 4.58204C32.2281 4.36586 31.7496 4.49398 31.5334 4.86855L29.1851 8.93564C28.9689 9.31021 29.0973 9.78905 29.4716 10.0049C29.8446 10.2205 30.3241 10.0942 30.5409 9.71842Z" fill="#F9B233"/>
<path d="M3.81549 21.2895L3.81824 21.2929C3.81855 21.2932 3.81885 21.2938 3.81916 21.2941L19.4711 40.5459C19.4729 40.5483 19.4753 40.5502 19.4772 40.5526C19.6304 40.7364 19.8563 40.8348 20.0783 40.8348C20.3116 40.8348 20.5385 40.7269 20.6856 40.5459L36.3375 21.2941C36.3378 21.2935 36.3381 21.2932 36.3384 21.2929L36.3412 21.2895C36.5304 21.0568 36.5179 20.7877 36.5167 20.7957C36.5167 20.6168 36.4516 20.4401 36.3451 20.3068L30.0829 12.479C29.9316 12.2897 29.6998 12.1851 29.4717 12.1851H10.685C10.6822 12.1851 10.6795 12.1857 10.6767 12.1857C10.4437 12.1882 10.2193 12.2967 10.0734 12.479L3.81121 20.3068C3.57821 20.5988 3.588 21.0097 3.81549 21.2895ZM6.06812 21.5785H12.8428L17.8829 36.1106L6.06812 21.5785ZM22.2738 36.1106L27.3138 21.5785H34.0889L22.2738 36.1106ZM29.7466 14.5643L34.1054 20.0129H27.8569L29.7466 14.5643ZM28.3718 13.7507L26.4531 19.2824L21.7674 13.7507H28.3718ZM25.0202 20.0129H23.2094C22.7771 20.0129 22.4267 20.3633 22.4267 20.7957C22.4267 21.2281 22.7771 21.5785 23.2094 21.5785H25.6569L20.0783 37.663L14.4998 21.5785H16.9472C17.3796 21.5785 17.73 21.2281 17.73 20.7957C17.73 20.3633 17.3796 20.0129 16.9472 20.0129H15.1364L20.0783 14.1791L25.0202 20.0129ZM18.3895 13.7507L13.7036 19.2824L11.7852 13.7507H18.3895ZM10.4101 14.5643L12.2998 20.0129H6.0513L10.4101 14.5643Z" fill="#F9B233"/>
</g>
<defs>
<clipPath id="clip0">
<rect width="40" height="40.0782" fill="white" transform="translate(0 0.834839)"/>
</clipPath>
</defs>
</svg>
