<svg width="40" height="40" viewBox="0 0 40 40" fill="none" xmlns="http://www.w3.org/2000/svg">
<path d="M28.25 26.375L38.75 36.9375V19.125L28.25 26.375ZM1.25 18.875V36.9375L11.75 26.375L1.25 18.875ZM15.1875 26.4375L3 38.75H37L24.8125 26.4375C22.8125 24.5 17.1875 24.5 15.1875 26.4375ZM36.25 15.375V17.8125L37.8125 16.6875L36.25 15.375ZM3.75 15.375L2.3125 16.5625L3.75 17.5625V15.375Z" fill="#CFB53B"/>
<path d="M26.375 24.5625L33.75 19.5V1.25H6.25V19.5L13.5 24.5625C16.5 21.8125 23.4375 21.8125 26.375 24.5625ZM28.75 13.75H15V11.25H28.75V13.75ZM11.25 6.25H17.5V8.75H11.25V6.25ZM11.25 16.25H28.75V18.75H11.25V16.25Z" fill="#CFB53B"/>
</svg>
