<svg width="20" height="20" viewBox="0 0 20 20" fill="none" xmlns="http://www.w3.org/2000/svg">
<path d="M9.16663 14.1667H10.8333V9.16675H9.16663V14.1667ZM9.99996 1.66675C5.39579 1.66675 1.66663 5.39591 1.66663 10.0001C1.66663 14.6042 5.39579 18.3334 9.99996 18.3334C14.6041 18.3334 18.3333 14.6042 18.3333 10.0001C18.3333 5.39591 14.6041 1.66675 9.99996 1.66675ZM9.99996 16.6667C6.32496 16.6667 3.33329 13.6751 3.33329 10.0001C3.33329 6.32508 6.32496 3.33341 9.99996 3.33341C13.675 3.33341 16.6666 6.32508 16.6666 10.0001C16.6666 13.6751 13.675 16.6667 9.99996 16.6667ZM9.16663 7.50008H10.8333V5.83342H9.16663V7.50008Z" fill="#F9B233"/>
</svg>
